HIERARCHY
ROOT root
{
	OFFSET 0.000000 0.000000 0.000000
	CHANNELS 6 Xposition Yposition Zposition Zrotation Yrotation Xrotation
	JOINT lhip
	{
		OFFSET 0.058581 -0.082280 -0.017664
		CHANNELS 3 Zrotation Yrotation Xrotation
		JOINT lknee
		{
			OFFSET 0.043451 -0.386469 0.008037
			CHANNELS 3 Zrotation Yrotation Xrotation
			JOINT lankle
			{
				OFFSET -0.014790 -0.426874 -0.037428
				CHANNELS 3 Zrotation Yrotation Xrotation
				JOINT ltoe
				{
					OFFSET 0.041054 -0.060286 0.122042
					CHANNELS 3 Zrotation Yrotation Xrotation
					End Site
					{
						OFFSET 0.000000 0.000000 0.000000
					}
				}
			}
		}
	}
	JOINT rhip
	{
		OFFSET -0.060310 -0.090513 -0.013543
		CHANNELS 3 Zrotation Yrotation Xrotation
		JOINT rknee
		{
			OFFSET -0.043257 -0.383688 -0.004843
			CHANNELS 3 Zrotation Yrotation Xrotation
			JOINT rankle
			{
				OFFSET 0.019056 -0.420046 -0.034562
				CHANNELS 3 Zrotation Yrotation Xrotation
				JOINT rtoe
				{
					OFFSET -0.034840 -0.062106 0.130323
					CHANNELS 3 Zrotation Yrotation Xrotation
					End Site
					{
						OFFSET 0.000000 0.000000 0.000000
					}
				}
			}
		}
	}
	JOINT lowerback
	{
		OFFSET 0.004439 0.124404 -0.038385
		CHANNELS 3 Zrotation Yrotation Xrotation
		JOINT upperback
		{
			OFFSET 0.004488 0.137956 0.026820
			CHANNELS 3 Zrotation Yrotation Xrotation
			JOINT chest
			{
				OFFSET -0.002265 0.056032 0.002855
				CHANNELS 3 Zrotation Yrotation Xrotation
				JOINT lowerneck
				{
					OFFSET -0.013390 0.211636 -0.033468
					CHANNELS 3 Zrotation Yrotation Xrotation
					JOINT upperneck
					{
						OFFSET 0.010113 0.088937 0.050410
						CHANNELS 3 Zrotation Yrotation Xrotation
						End Site
						{
							OFFSET 0.000000 0.000000 0.000000
						}
					}
				}
				JOINT lclavicle
				{
					OFFSET 0.071702 0.114000 -0.018898
					CHANNELS 3 Zrotation Yrotation Xrotation
					JOINT lshoulder
					{
						OFFSET 0.122921 0.045205 -0.019046
						CHANNELS 3 Zrotation Yrotation Xrotation
						JOINT lelbow
						{
							OFFSET 0.255332 -0.015649 -0.022946
							CHANNELS 3 Zrotation Yrotation Xrotation
							JOINT lwrist
							{
								OFFSET 0.265709 0.012698 -0.007375
								CHANNELS 3 Zrotation Yrotation Xrotation
								End Site
								{
									OFFSET 0.000000 0.000000 0.000000
								}
							}
						}
					}
				}
				JOINT rclavicle
				{
					OFFSET -0.082954 0.112472 -0.023707
					CHANNELS 3 Zrotation Yrotation Xrotation
					JOINT rshoulder
					{
						OFFSET -0.113228 0.046853 -0.008472
						CHANNELS 3 Zrotation Yrotation Xrotation
						JOINT relbow
						{
							OFFSET -0.260127 -0.014369 -0.031269
							CHANNELS 3 Zrotation Yrotation Xrotation
							JOINT rwrist
							{
								OFFSET -0.269108 0.006794 -0.006027
								CHANNELS 3 Zrotation Yrotation Xrotation
								End Site
								{
									OFFSET 0.000000 0.000000 0.000000
								}
							}
						}
					}
				}
			}
		}
	}
}
MOTION
Frames: 17
Frame Time: 0.033333
-0.235911 -0.449091 0.955789 -173.820896 -2.209342 94.526225 8.753696 0.075917 -48.220761 -4.794815 16.496971 74.945618 -2.425521 5.835489 -6.189869 0.000000 -0.000000 0.000000 -4.883537 1.162979 -48.839033 -1.757030 -10.315238 74.121946 5.952134 -4.004985 0.327387 0.000000 -0.000000 0.000000 0.172158 -1.996100 49.394926 -0.691176 -1.495636 -3.173161 0.084088 -1.219956 1.759919 -2.075536 -3.959588 -9.009829 9.216877 4.830210 -9.346935 -34.421323 -8.122926 4.928300 -48.506419 2.316675 5.679726 15.842860 -39.074822 -13.576109 3.625623 -3.733553 -9.274722 26.221993 12.441058 5.005907 51.194541 -0.836338 9.969918 -15.637890 41.440053 -11.463447 3.075582 4.611535 -6.029512 
-0.235461 -0.423663 0.956066 -173.900189 -2.575741 93.989819 7.858628 0.756824 -50.452093 -5.466327 17.908593 68.524412 -2.062590 5.935893 -7.209955 0.000000 -0.000000 0.000000 -4.672463 0.752894 -47.198142 -1.993066 -9.903985 75.308801 6.251873 -4.028103 0.441748 0.000000 -0.000000 0.000000 0.020270 -1.458089 49.995512 -0.744029 -1.908629 -3.355389 0.223408 -1.107012 1.860799 -2.068145 -4.075108 -9.121233 9.397898 4.841185 -9.184609 -34.544017 -8.104367 4.716520 -48.525836 3.026487 5.532536 15.513185 -38.837044 -13.376270 3.715880 -3.685914 -9.144606 26.026737 12.434387 4.763191 51.400673 -0.895654 9.977992 -15.542427 41.309109 -11.604867 2.947735 4.643344 -5.483340 
-0.235832 -0.398182 0.955624 -174.021091 -2.705969 93.783942 6.898978 1.355901 -52.023552 -6.642318 18.652712 60.682597 -2.265759 5.901436 -5.897635 0.000000 -0.000000 0.000000 -4.407020 0.244785 -45.715650 -2.267475 -9.947522 76.293083 5.915470 -4.261123 0.310744 0.000000 -0.000000 0.000000 0.092123 -1.138617 50.064102 -0.845392 -2.163497 -3.395552 0.283939 -0.984349 1.982112 -2.042709 -4.101086 -9.262845 9.559481 4.824445 -8.983799 -34.605185 -7.981829 4.404002 -48.563134 3.734281 5.505064 15.138644 -38.619406 -12.983938 3.698910 -3.563440 -8.900138 25.787222 12.319989 4.583088 51.710301 -0.910204 9.829388 -15.355566 41.174011 -11.597074 2.845922 4.739558 -5.093014 
-0.237009 -0.372503 0.954740 -174.309387 -2.640444 94.023117 5.999904 1.825205 -53.043525 -7.660316 18.910622 52.113452 -3.716535 5.629700 -1.397747 0.000000 -0.000000 0.000000 -4.095547 -0.078233 -44.526660 -2.756647 -10.170737 77.100697 5.355712 -4.307833 0.062265 0.000000 -0.000000 0.000000 0.286522 -0.946641 49.574483 -0.987584 -2.231252 -3.124580 0.262216 -0.843587 1.940075 -2.005453 -3.954084 -9.421740 9.680041 4.634630 -8.960420 -34.687734 -7.773329 4.060219 -48.572019 4.388644 5.684317 15.043650 -38.553904 -12.894770 3.469335 -3.483364 -8.661943 25.671239 12.208390 4.524658 51.880978 -0.925897 9.670977 -15.063393 41.089432 -11.455144 2.890279 4.904306 -4.893423 
-0.239020 -0.346352 0.953652 -174.783730 -2.470866 94.603438 5.169911 2.191824 -53.532495 -8.166272 18.984007 43.660118 -5.349499 5.794655 6.371410 0.000000 -0.000000 0.000000 -3.793390 -0.334220 -43.625002 -3.074640 -10.247127 77.706426 4.538822 -4.097115 0.127583 0.000000 -0.000000 0.000000 0.499443 -0.851713 48.777407 -1.158731 -2.157832 -2.700896 0.202370 -0.716555 1.755912 -2.069979 -3.705049 -9.632501 9.727259 4.526380 -8.934220 -34.767677 -7.558306 3.757028 -48.578281 4.928616 5.959662 15.098815 -38.561281 -13.051553 3.322695 -3.337505 -8.452480 25.576415 12.175379 4.582617 51.958654 -0.979335 9.568197 -14.757565 41.180508 -11.171313 2.960253 5.054101 -4.498980 
-0.241915 -0.319017 0.952130 -175.541583 -2.327460 95.285294 4.478586 2.409647 -53.449541 -8.145645 18.980874 36.598030 -5.896935 6.524436 13.104181 0.000000 -0.000000 0.000000 -3.614796 -0.627514 -42.790055 -3.068455 -10.044946 78.209809 3.926387 -3.735146 0.456294 0.000000 -0.000000 0.000000 0.551871 -0.691281 47.902017 -1.361903 -2.025509 -2.277466 0.162974 -0.563794 1.586341 -2.227463 -3.468583 -9.786839 9.730415 4.644441 -8.991893 -34.792775 -7.390868 3.491341 -48.578553 5.364223 6.219336 15.202863 -38.559891 -13.295881 3.294828 -3.316170 -8.465438 25.444790 12.207641 4.637094 52.046743 -1.060864 9.570925 -14.564685 41.359807 -11.119218 3.108727 5.263481 -4.194628 
-0.245682 -0.289609 0.950280 -176.650433 -2.287694 95.843784 4.045105 2.466971 -53.049095 -7.996834 18.785353 32.784549 -5.935302 7.129197 16.964569 0.000000 -0.000000 0.000000 -3.605241 -0.854858 -41.564662 -2.790948 -9.322578 78.550657 4.277032 -2.974922 0.922611 0.000000 -0.000000 0.000000 0.428008 -0.327446 47.182244 -1.633313 -1.937364 -1.969567 0.085111 -0.383240 1.483341 -2.306210 -3.206619 -9.828087 9.745074 4.801909 -9.100426 -34.796295 -7.328597 3.267416 -48.469637 5.704701 6.356669 15.137266 -38.449787 -13.450964 3.606013 -3.203410 -8.380221 25.362938 12.300004 4.574723 52.148672 -1.142097 9.602525 -14.224856 41.313537 -11.058458 2.882303 5.285306 -3.772112 
-0.250224 -0.257830 0.947804 -178.067310 -2.359251 96.295133 4.067331 2.424824 -52.593641 -7.889734 19.415061 33.180342 -5.391414 7.714355 18.997322 0.000000 -0.000000 0.000000 -3.826638 -0.821443 -40.028679 -2.111613 -8.199806 78.746891 4.710929 -2.033299 1.398293 0.000000 -0.000000 0.000000 0.130747 0.286711 46.452521 -1.881251 -1.877947 -1.621020 -0.053726 -0.228601 1.375853 -2.355181 -2.982668 -9.835253 9.715735 5.032377 -9.112288 -34.766534 -7.345225 3.083890 -48.304965 5.948469 6.371551 14.915237 -38.100292 -13.568285 3.919074 -3.037398 -8.175785 25.353477 12.363800 4.521325 52.237921 -1.286832 9.720660 -14.021220 41.290282 -10.943175 3.030314 5.200369 -3.486416 
-0.255571 -0.223959 0.944666 -179.503571 -2.482020 96.781202 4.213400 1.949342 -51.998822 -7.831272 20.362929 36.295343 -2.794510 7.517988 14.905803 0.000000 -0.000000 0.000000 -4.270103 -0.758768 -38.351984 -1.116290 -7.087773 78.771958 5.387905 -1.657268 2.018025 0.000000 -0.000000 0.000000 -0.211662 0.901279 45.731064 -2.118200 -1.851558 -1.575260 -0.207873 -0.074697 1.509835 -2.385478 -3.110097 -9.902969 9.587878 5.481624 -9.122744 -34.667339 -7.264356 2.995551 -48.248454 5.930016 6.142251 14.619974 -37.667877 -13.400107 3.988578 -2.924674 -7.849771 25.292027 12.317050 4.438645 52.436760 -1.418127 10.054774 -14.216510 41.236380 -11.201266 3.681626 5.036569 -2.973838 
-0.260760 -0.188797 0.942137 179.433254 -2.545954 97.263713 4.403441 1.236204 -52.397950 -7.031713 21.689128 40.947963 -0.323953 8.103051 9.300322 0.000000 -0.000000 0.000000 -4.539315 -0.717013 -36.507400 -0.300555 -5.726596 78.552062 6.502671 -1.325724 3.248566 0.000000 -0.000000 0.000000 -0.469322 1.591985 45.320719 -2.161617 -2.066560 -1.860597 -0.235050 0.019661 1.820230 -2.324965 -3.301483 -10.121602 9.500296 5.913350 -9.140080 -34.422507 -7.252111 3.011886 -48.475205 5.652446 5.780203 14.311264 -37.118332 -13.196786 4.385894 -2.795430 -7.919548 25.135059 12.167233 4.269222 52.626900 -1.397176 10.370148 -14.344682 41.070081 -11.431581 3.671173 4.934254 -2.797806 
-0.265437 -0.153517 0.941260 178.881450 -2.806003 97.585289 4.885387 0.021944 -53.634414 -6.015586 22.026750 46.216416 0.110467 8.762712 7.414207 0.000000 -0.000000 0.000000 -4.922854 -0.620115 -34.683674 0.265440 -4.083176 78.278471 8.119591 -0.474545 6.072244 0.000000 -0.000000 0.000000 -0.841028 2.549453 45.388779 -1.946537 -2.534860 -1.985823 -0.091981 -0.026859 1.802544 -2.119281 -3.347783 -10.179410 9.671473 6.047606 -9.385461 -34.163447 -7.537106 3.130723 -48.706879 5.453348 5.712450 14.323853 -36.827596 -13.512103 4.647987 -2.756558 -8.060605 25.138690 12.167859 4.093726 52.604926 -1.507581 10.549016 -14.640870 41.039253 -11.823804 3.780741 4.721222 -2.987456 
-0.269923 -0.117980 0.941137 178.546570 -3.117055 97.536836 5.253180 -1.419979 -54.123689 -6.075913 20.499511 50.887443 -0.277131 8.531687 5.423137 0.000000 -0.000000 0.000000 -5.453865 -0.572076 -32.996874 0.911402 -2.540571 78.323216 10.171495 0.230197 10.553956 0.000000 -0.000000 0.000000 -1.242650 3.486584 45.683790 -1.706023 -2.877542 -1.939420 0.021590 -0.080210 1.757864 -1.744372 -3.348461 -9.994976 9.719742 6.023331 -9.632077 -34.214725 -7.679875 3.095516 -48.387831 5.286840 5.884346 14.240651 -37.051449 -13.441695 4.531624 -2.865782 -7.844219 25.501717 12.190997 3.874378 52.273332 -1.616577 10.894959 -15.085799 41.062357 -12.311916 3.939250 4.552460 -3.102311 
-0.274480 -0.082981 0.940824 178.213626 -3.142518 97.434707 5.271480 -2.442021 -53.627965 -6.521353 19.542881 54.368333 0.361302 9.033988 2.513788 0.000000 -0.000000 0.000000 -6.079303 -0.137638 -32.420079 1.513748 -1.861218 79.441518 11.926448 0.116205 16.109028 0.000000 -0.000000 0.000000 -1.430604 3.869666 45.732901 -1.624622 -2.730188 -2.239228 -0.069938 -0.034300 2.279544 -1.434681 -3.191597 -10.015021 9.396731 5.755121 -9.229620 -34.049991 -7.526989 3.074194 -48.269540 4.742580 5.940053 14.007182 -37.140016 -13.093312 4.396812 -3.108655 -7.869689 25.584965 11.927109 3.540239 52.357630 -1.264753 11.420713 -15.407270 40.722610 -12.403234 3.986805 4.440378 -3.405611 
-0.278460 -0.050186 0.940669 178.194030 -2.850505 97.522504 5.311735 -2.998698 -52.917289 -6.557306 19.506244 57.103854 1.348337 9.511481 0.239428 0.000000 -0.000000 0.000000 -6.734160 0.620976 -33.526367 2.071886 -2.426292 81.670482 12.541942 -0.539940 21.478850 0.000000 -0.000000 0.000000 -1.439592 3.584686 45.875902 -1.487527 -2.295239 -2.901309 -0.195054 0.018423 2.893312 -1.278684 -2.891363 -10.151761 8.853306 5.368432 -9.057100 -33.656730 -7.267561 3.266370 -48.489614 4.045963 5.880310 13.924788 -37.272492 -12.867270 4.025704 -3.349513 -8.016760 25.436658 11.573572 3.397296 52.657013 -0.676171 11.836396 -15.794997 40.690516 -12.334939 4.201675 4.331707 -4.322517 
-0.281376 -0.019291 0.941294 178.580305 -2.515967 97.288033 5.206510 -3.247746 -51.913447 -6.900586 18.862742 59.400022 1.210639 9.650177 -0.880732 0.000000 -0.000000 0.000000 -7.311703 1.052713 -35.472039 2.667198 -3.767876 84.766108 13.423846 1.128242 20.012065 0.000000 -0.000000 0.000000 -1.327271 3.070769 46.745084 -1.205973 -2.108285 -3.139163 -0.262300 -0.015897 2.838652 -0.912509 -1.874031 -10.242790 8.230114 4.571195 -9.750589 -33.620912 -7.486546 3.199533 -48.291091 3.988795 6.167668 14.057189 -37.443067 -13.190113 3.739377 -3.531815 -8.195549 25.842469 11.625995 3.379197 52.314531 -0.400454 11.766747 -15.952471 41.315265 -12.141170 3.860290 4.417273 -5.149882 
-0.283565 0.009886 0.942384 179.040382 -2.203307 96.804627 4.870783 -3.173103 -50.532285 -7.405014 17.940930 61.280224 0.566110 9.861592 -1.532254 0.000000 -0.000000 0.000000 -7.779418 1.188388 -38.285027 2.581795 -5.667356 88.034199 13.215526 3.447213 11.547733 0.000000 -0.000000 0.000000 -1.095769 2.402640 47.797108 -1.019724 -1.939969 -3.051017 -0.393330 -0.124652 2.571935 -0.355108 -0.370446 -10.347080 7.603571 3.458281 -10.206373 -33.612696 -8.060405 2.977721 -48.029888 4.041187 6.525379 14.350048 -37.241371 -13.913866 3.713401 -3.490586 -8.344221 26.348684 11.951047 3.419898 52.095456 -0.193411 11.341954 -16.084992 41.801953 -11.814335 3.264512 4.510202 -5.358455 
-0.284913 0.037418 0.943677 179.471643 -1.713822 96.481858 4.604793 -2.783861 -49.034109 -7.608116 17.167765 62.752203 0.031399 10.009855 -2.199346 0.000000 -0.000000 0.000000 -7.892564 1.368820 -42.234470 1.421252 -7.532468 90.452726 11.095535 4.115520 2.428919 0.000000 -0.000000 0.000000 -0.821304 1.410115 48.601497 -0.960059 -1.577691 -3.259968 -0.510693 -0.244585 2.624688 0.019757 0.931921 -10.402378 7.009569 2.668835 -10.246141 -33.347935 -8.321758 2.884959 -48.114498 3.782162 6.532461 14.705030 -37.192354 -14.229561 3.441043 -3.417198 -8.805066 26.431793 12.238962 3.573463 52.439403 0.223872 10.941429 -16.222035 41.977930 -11.096335 2.978305 4.545740 -5.744305 
